<svg width="30" height="30" viewBox="0 0 30 30" fill="none" xmlns="http://www.w3.org/2000/svg" xmlns:xlink="http://www.w3.org/1999/xlink">
<path d="M2.451,-0.378C1.67,-1.159 0.404,-1.159 -0.377,-0.378C-1.158,0.403 -1.158,1.669 -0.377,2.45L11.172,14L-0.377,25.549C-1.158,26.33 -1.158,27.597 -0.377,28.378C0.404,29.159 1.67,29.159 2.451,28.378L14.001,16.828L25.55,28.378C26.331,29.159 27.598,29.159 28.379,28.378C29.16,27.597 29.16,26.33 28.379,25.549L16.829,14L28.379,2.45C29.16,1.669 29.16,0.403 28.379,-0.378C27.598,-1.159 26.331,-1.159 25.55,-0.378L14.001,11.171L2.451,-0.378Z" clip-rule="evenodd" fill-rule="evenodd" fill="#171717"/>
</svg>
