<svg width="40" height="28" viewBox="0 0 40 28" fill="none" xmlns="http://www.w3.org/2000/svg" xmlns:xlink="http://www.w3.org/1999/xlink">
<path d="M0,1.99C0,0.891 0.891,0 1.99,0L18.01,0C19.109,0 20,0.891 20,1.99C20,3.09 19.109,3.981 18.01,3.981L1.99,3.981C0.891,3.981 0,3.09 0,1.99ZM0,14C0,12.9 0.891,12.009 1.99,12.009L38.01,12.009C39.109,12.009 40,12.9 40,14C40,15.099 39.109,15.99 38.01,15.99L1.99,15.99C0.891,15.99 0,15.099 0,14ZM0,26.01C0,24.91 0.891,24.019 1.99,24.019L26.01,24.019C27.109,24.019 28,24.91 28,26.01C28,27.109 27.109,28 26.01,28L1.99,28C0.891,28 0,27.109 0,26.01Z" clip-rule="evenodd" fill-rule="evenodd" fill="#171717"/>
</svg>
