<svg width="340" height="264" viewBox="0 0 340 264" fill="none" xmlns="http://www.w3.org/2000/svg" xmlns:xlink="http://www.w3.org/1999/xlink">
<path d="M286,163C286,218.781 239.885,264 183,264C126.115,264 80,218.781 80,163C80,107.219 126.115,62 183,62C239.885,62 286,107.219 286,163Z" fill="url(#pattern_0_22_1155)"/>
<path d="M340,146C340,150.418 336.866,154 333,154C329.134,154 326,150.418 326,146C326,141.582 329.134,138 333,138C336.866,138 340,141.582 340,146Z" fill="#040000"/>
<path d="M46,28C46,32.418 42.866,36 39,36C35.134,36 32,32.418 32,28C32,23.582 35.134,20 39,20C42.866,20 46,23.582 46,28Z" fill="#040000"/>
<path d="M276,51C276,57.075 271.523,62 266,62C260.477,62 256,57.075 256,51C256,44.925 260.477,40 266,40C271.523,40 276,44.925 276,51Z" fill="#040000"/>
<path d="M282,7C282,10.866 278.418,14 274,14C269.582,14 266,10.866 266,7C266,3.134 269.582,0 274,0C278.418,0 282,3.134 282,7Z" fill="#040000"/>
<path d="M312,71C312,74.866 308.418,78 304,78C299.582,78 296,74.866 296,71C296,67.134 299.582,64 304,64C308.418,64 312,67.134 312,71Z" fill="#040000"/>
<path d="M86,240C86,244.418 82.866,248 79,248C75.134,248 72,244.418 72,240C72,235.582 75.134,232 79,232C82.866,232 86,235.582 86,240Z" fill="#040000"/>
<path d="M14,84C14,88.418 10.866,92 7,92C3.134,92 0,88.418 0,84C0,79.582 3.134,76 7,76C10.866,76 14,79.582 14,84Z" fill="#040000"/>
<path d="M340,204C340,208.418 336.866,212 333,212C329.134,212 326,208.418 326,204C326,199.582 329.134,196 333,196C336.866,196 340,199.582 340,204Z" fill="#040000"/>
<path d="M46,86C46,90.418 42.866,94 39,94C35.134,94 32,90.418 32,86C32,81.582 35.134,78 39,78C42.866,78 46,81.582 46,86Z" fill="#040000"/>
<path d="M322,256C322,260.418 318.866,264 315,264C311.134,264 308,260.418 308,256C308,251.582 311.134,248 315,248C318.866,248 322,251.582 322,256Z" fill="#040000"/>
<path d="M28,138C28,142.418 24.866,146 21,146C17.134,146 14,142.418 14,138C14,133.582 17.134,130 21,130C24.866,130 28,133.582 28,138Z" fill="#040000"/>
<path d="M332,177C332,184.18 327.075,190 321,190C314.925,190 310,184.18 310,177C310,169.82 314.925,164 321,164C327.075,164 332,169.82 332,177Z" fill="#040000"/>
<path d="M38,59C38,66.18 33.075,72 27,72C20.925,72 16,66.18 16,59C16,51.82 20.925,46 27,46C33.075,46 38,51.82 38,59Z" fill="#040000"/>
</svg>
