<svg width="76" height="76" viewBox="0 0 76 76" fill="none" xmlns="http://www.w3.org/2000/svg" xmlns:xlink="http://www.w3.org/1999/xlink">
<path d="M71.333,21.333L75.333,21.333C75.333,19.818 74.477,18.433 73.122,17.756L71.333,21.333ZM38,4.667L39.789,1.089C38.663,0.526 37.337,0.526 36.211,1.089L38,4.667ZM4.667,21.333L2.878,17.756C1.523,18.433 0.667,19.818 0.667,21.333L4.667,21.333ZM4.667,54.667L0.667,54.667C0.667,56.182 1.523,57.567 2.878,58.244L4.667,54.667ZM38,71.333L36.211,74.911C37.337,75.474 38.663,75.474 39.789,74.911L38,71.333ZM71.333,54.667L73.122,58.244C74.477,57.567 75.333,56.182 75.333,54.667L71.333,54.667ZM73.122,17.756L39.789,1.089L36.211,8.244L69.545,24.911L73.122,17.756ZM36.211,1.089L2.878,17.756L6.456,24.911L39.789,8.244L36.211,1.089ZM0.667,21.333L0.667,54.667L8.667,54.667L8.667,21.333L0.667,21.333ZM2.878,58.244L36.211,74.911L39.789,67.756L6.456,51.089L2.878,58.244ZM39.789,74.911L73.122,58.244L69.545,51.089L36.211,67.756L39.789,74.911ZM75.333,54.667L75.333,21.333L67.333,21.333L67.333,54.667L75.333,54.667Z" fill="#B2BCCA"/>
<path d="M6.008,18.65C4.526,17.909 2.724,18.51 1.983,19.992C1.243,21.474 1.843,23.276 3.325,24.017L6.008,18.65ZM36.658,40.683C38.14,41.424 39.942,40.824 40.683,39.342C41.424,37.86 40.824,36.058 39.342,35.317L36.658,40.683ZM35,71.333C35,72.99 36.343,74.333 38,74.333C39.657,74.333 41,72.99 41,71.333L35,71.333ZM41,38C41,36.343 39.657,35 38,35C36.343,35 35,36.343 35,38L41,38ZM72.675,24.017C74.157,23.276 74.758,21.474 74.017,19.992C73.276,18.51 71.474,17.909 69.992,18.65L72.675,24.017ZM36.658,35.317C35.177,36.058 34.576,37.86 35.317,39.342C36.058,40.824 37.86,41.424 39.342,40.683L36.658,35.317ZM56.008,15.683C57.49,14.942 58.091,13.14 57.35,11.658C56.609,10.176 54.807,9.576 53.325,10.317L56.008,15.683ZM19.992,26.983C18.51,27.724 17.909,29.526 18.65,31.008C19.391,32.49 21.193,33.091 22.675,32.35L19.992,26.983ZM3.325,24.017L36.658,40.683L39.342,35.317L6.008,18.65L3.325,24.017ZM39.342,35.317L6.008,18.65L3.325,24.017L36.658,40.683L39.342,35.317ZM41,71.333L41,38L35,38L35,71.333L41,71.333ZM35,38L35,71.333L41,71.333L41,38L35,38ZM69.992,18.65L36.658,35.317L39.342,40.683L72.675,24.017L69.992,18.65ZM39.342,40.683L72.675,24.017L69.992,18.65L36.658,35.317L39.342,40.683ZM53.325,10.317L19.992,26.983L22.675,32.35L56.008,15.683L53.325,10.317Z" fill="#B2BCCA"/>
</svg>
