<svg width="48" height="48" viewBox="0 0 48 48" fill="none" xmlns="http://www.w3.org/2000/svg" xmlns:xlink="http://www.w3.org/1999/xlink">
<path d="M32,14C32,18.418 28.418,22 24,22C19.582,22 16,18.418 16,14C16,9.582 19.582,6 24,6C28.418,6 32,9.582 32,14ZM28,14C28,16.209 26.209,18 24,18C21.791,18 20,16.209 20,14C20,11.791 21.791,10 24,10C26.209,10 28,11.791 28,14Z" clip-rule="evenodd" fill-rule="evenodd" fill="#171717"/>
<path d="M32,30C32,28.895 31.105,28 30,28L18,28C16.895,28 16,28.895 16,30L16,42L12,42L12,30C12,26.686 14.686,24 18,24L30,24C33.314,24 36,26.686 36,30L36,42L32,42L32,30Z" clip-rule="evenodd" fill-rule="evenodd" fill="#171717"/>
</svg>
