<svg width="48" height="48" viewBox="0 0 48 48" fill="none" xmlns="http://www.w3.org/2000/svg" xmlns:xlink="http://www.w3.org/1999/xlink">
<path d="M10,8L38,8C39.105,8 40,8.895 40,10L40,38C40,39.105 39.105,40 38,40L10,40C8.895,40 8,39.105 8,38L8,10C8,8.895 8.895,8 10,8ZM4,10C4,6.686 6.686,4 10,4L38,4C41.314,4 44,6.686 44,10L44,38C44,41.314 41.314,44 38,44L10,44C6.686,44 4,41.314 4,38L4,10Z" clip-rule="evenodd" fill-rule="evenodd" fill="#171717"/>
<path d="M24,24C18.477,24 14,18.627 14,12L18,12C18,17.132 21.338,20 24,20C26.662,20 30,17.132 30,12L34,12C34,18.627 29.523,24 24,24Z" clip-rule="evenodd" fill-rule="evenodd" fill="#171717"/>
</svg>
