<svg width="152" height="60" viewBox="0 0 152 60" fill="none" xmlns="http://www.w3.org/2000/svg" xmlns:xlink="http://www.w3.org/1999/xlink">
<path d="M124.407,31.589C122.018,31.589 120.068,29.639 120.068,27.251C120.068,24.838 122.018,22.912 124.407,22.912C126.796,22.912 128.746,24.862 128.746,27.251C128.77,29.639 126.82,31.589 124.407,31.589ZM124.407,18.768C119.727,18.768 115.925,22.571 115.925,27.251C115.925,31.931 119.727,35.733 124.407,35.733C129.087,35.733 132.889,31.931 132.889,27.251C132.889,22.546 129.087,18.768 124.407,18.768Z" fill="#000000"/>
<path d="M85.457,31.589C83.068,31.589 81.118,29.639 81.118,27.251C81.118,24.838 83.068,22.912 85.457,22.912C87.846,22.912 89.796,24.862 89.796,27.251C89.796,29.639 87.846,31.589 85.457,31.589ZM85.457,18.768C80.777,18.768 76.975,22.571 76.975,27.251C76.975,31.931 80.777,35.733 85.457,35.733C90.137,35.733 93.939,31.931 93.939,27.251C93.915,22.546 90.137,18.768 85.457,18.768Z" fill="#000000"/>
<path d="M115.389,31.833C114.853,31.98 114.024,32.15 113.732,32.15C112.269,32.15 111.977,31.638 111.977,30.273L111.977,22.425L115.438,22.425L115.438,19.159L111.977,19.159L111.977,14.527L108.077,14.527L107.248,19.159L104.542,19.159L104.323,19.159C102.105,19.159 100.423,20.523 99.351,22.644L98.01,19.159L95.207,19.159L95.207,35.416L99.984,35.416L99.984,28.348C99.984,24.789 102.105,22.498 104.591,22.425L107.199,22.425L107.199,30.517C107.199,34.32 109.149,35.733 112.318,35.733C113.951,35.733 115.219,35.392 115.974,35.148L115.389,31.833Z" fill="#000000"/>
<path d="M138.691,24.277L138.691,35.416L134.035,35.416L134.035,19.134L136.863,19.134L137.813,21.62Z" fill="#000000"/>
<path d="M137.79,21.645C139.204,20.011 141.129,18.768 143.396,18.768C147.272,18.768 148.856,21.864 148.856,24.716L148.856,35.416L144.079,35.416L144.079,24.862C144.079,23.473 142.909,22.717 141.666,22.717C140.325,22.717 139.472,23.497 138.716,24.301Z" fill="#000000"/>
<path d="M58.425,13.26L63.763,13.26L71.075,27.178L71.075,13.26L75.487,13.26L75.487,35.416L70.661,35.416L62.837,20.085L62.837,35.416L58.425,35.416L58.425,13.26Z" fill="#000000"/>
<path d="M148.856,19.158L148.856,19.475L149.295,19.475L149.295,21.011L149.661,21.011L149.661,19.475L150.124,19.475L150.124,19.158L148.856,19.158Z" fill="#000000"/>
<path d="M151.513,19.158L151.196,20.377L150.855,19.158L150.367,19.158L150.367,21.011L150.684,21.011L150.684,19.548L151.074,21.011L151.318,21.011L151.708,19.548L151.708,21.011L152,21.011L152,19.158L151.513,19.158Z" fill="#000000"/>
<path d="M25.398,15.892C20.767,15.892 16.404,17.696 13.114,20.987C9.823,24.277 8.019,28.64 8.019,33.271C8.019,37.902 9.823,42.266 13.114,45.556C16.404,48.847 20.767,50.65 25.398,50.65C30.029,50.65 34.393,48.847 37.683,45.556C40.949,42.266 42.753,37.902 42.777,33.271C42.777,28.64 40.974,24.277 37.683,20.987C34.393,17.72 30.029,15.892 25.398,15.892ZM25.398,58.67C11.407,58.67 0,47.262 0,33.271C0,19.256 11.407,7.873 25.398,7.873C39.389,7.873 50.797,19.256 50.797,33.271C50.797,47.262 39.389,58.67 25.398,58.67Z" fill="#FFC20E"/>
<path d="M55.038,3.949L53.063,3.949L53.063,5.923L55.038,5.923L55.038,3.949Z" fill="#FFC20E"/>
<path d="M55.038,0L53.063,0L53.063,1.974L55.038,1.974L55.038,0Z" fill="#FFC20E"/>
<path d="M49.359,5.923L47.507,5.923L47.507,7.848L49.359,7.848L49.359,5.923Z" fill="#FFFFFF"/>
<path d="M45.702,9.726L43.825,9.726L43.825,11.578L45.702,11.578L45.702,9.726Z" fill="#000000"/>
<path d="M51.406,7.849L49.334,7.849L49.334,9.701L51.406,9.701L51.406,7.849Z" fill="#000000"/>
<path d="M43.826,7.946L41.974,7.946L41.974,9.726L43.826,9.726L43.826,7.946Z" fill="#000000"/>
<path d="M49.359,9.726L47.507,9.726L47.507,11.578L49.359,11.578L49.359,9.726Z" fill="#000000"/>
<path d="M53.064,1.999L51.114,1.999L51.114,3.973L53.064,3.973L53.064,1.999Z" fill="#000000"/>
<path d="M51.114,3.949L47.507,3.949L47.507,5.923L51.114,5.923L51.114,3.949Z" fill="#000000"/>
<path d="M47.506,5.923L45.702,5.923L45.702,9.725L47.506,9.725L47.506,5.923Z" fill="#000000"/>
<path d="M45.703,11.578L45.703,13.43L43.826,13.43L43.826,11.578L40.731,11.578L40.731,12.918L39.073,12.918L39.073,14.576L40.926,14.576L40.926,16.428L39.073,16.428L39.073,14.576L37.099,14.576L37.099,17.477L35.246,17.477L35.246,19.329L34.003,19.329L34.003,21.181L32.638,21.181C31.103,23.448 27.3,30.517 26.13,33.393C21.962,27.592 18.72,25.301 16.185,24.472C14.82,24.058 13.163,25.545 15.43,27.909C20.67,33.686 22.328,38.439 23.912,42.265C24.765,44.264 28.543,44.581 29.299,42.534C30.908,38.219 33.248,33.344 36.026,29.371L36.026,27.299L37.513,27.299L37.513,25.447L39.073,25.447L39.073,23.278L40.926,23.278L40.926,21.206L39.049,21.206L39.049,19.305L40.926,19.305L40.926,21.206L42.754,21.206L42.754,19.329L44.216,19.329L44.216,17.062L45.874,17.062L45.874,15.502L47.458,15.502L47.458,11.578L45.703,11.578L45.703,11.578Z" fill="#000000"/>
<path d="M63.759,51.826C63.759,52.502 63.513,53.03 63.022,53.409C62.531,53.788 61.865,53.977 61.023,53.977C60.111,53.977 59.41,53.86 58.919,53.625L58.919,52.762C59.235,52.895 59.578,53 59.95,53.078C60.322,53.155 60.69,53.193 61.055,53.193C61.651,53.193 62.1,53.081 62.402,52.857C62.703,52.629 62.854,52.313 62.854,51.91C62.854,51.643 62.8,51.426 62.691,51.257C62.586,51.085 62.407,50.928 62.154,50.784C61.905,50.64 61.525,50.477 61.013,50.295C60.297,50.039 59.785,49.735 59.477,49.384C59.171,49.034 59.019,48.576 59.019,48.011C59.019,47.419 59.242,46.947 59.687,46.596C60.132,46.245 60.722,46.07 61.455,46.07C62.219,46.07 62.923,46.21 63.564,46.491L63.286,47.27C62.651,47.003 62.033,46.87 61.434,46.87C60.96,46.87 60.59,46.971 60.324,47.175C60.057,47.378 59.924,47.661 59.924,48.022C59.924,48.288 59.973,48.508 60.071,48.679C60.169,48.848 60.334,49.004 60.566,49.148C60.801,49.288 61.158,49.444 61.639,49.616C62.446,49.904 63,50.212 63.301,50.542C63.606,50.872 63.759,51.299 63.759,51.826Z" fill="#000000"/>
<path d="M67.636,53.977C66.784,53.977 66.111,53.718 65.616,53.199C65.125,52.68 64.88,51.959 64.88,51.036C64.88,50.107 65.108,49.369 65.564,48.822C66.023,48.274 66.638,48.001 67.41,48.001C68.133,48.001 68.704,48.239 69.125,48.716C69.546,49.19 69.756,49.816 69.756,50.594L69.756,51.147L65.784,51.147C65.802,51.824 65.972,52.338 66.295,52.688C66.621,53.039 67.079,53.214 67.668,53.214C68.289,53.214 68.902,53.085 69.509,52.825L69.509,53.604C69.201,53.737 68.908,53.832 68.631,53.888C68.357,53.947 68.026,53.977 67.636,53.977ZM67.4,48.732C66.937,48.732 66.567,48.883 66.29,49.185C66.016,49.486 65.855,49.904 65.806,50.437L68.82,50.437C68.82,49.886 68.697,49.465 68.452,49.174C68.206,48.879 67.856,48.732 67.4,48.732Z" fill="#000000"/>
<path d="M73.555,53.977C72.72,53.977 72.073,53.721 71.614,53.209C71.158,52.694 70.93,51.966 70.93,51.026C70.93,50.061 71.161,49.316 71.624,48.79C72.091,48.264 72.753,48.001 73.613,48.001C73.89,48.001 74.167,48.031 74.444,48.09C74.721,48.15 74.938,48.22 75.096,48.301L74.828,49.043C74.635,48.965 74.425,48.902 74.197,48.853C73.969,48.801 73.767,48.774 73.592,48.774C72.42,48.774 71.835,49.521 71.835,51.015C71.835,51.724 71.977,52.267 72.261,52.646C72.548,53.025 72.973,53.214 73.534,53.214C74.014,53.214 74.507,53.111 75.012,52.904L75.012,53.677C74.626,53.877 74.141,53.977 73.555,53.977Z" fill="#000000"/>
<path d="M77.206,48.106L77.206,51.847C77.206,52.317 77.313,52.667 77.527,52.899C77.741,53.13 78.076,53.246 78.532,53.246C79.135,53.246 79.575,53.081 79.852,52.751C80.133,52.422 80.273,51.883 80.273,51.136L80.273,48.106L81.146,48.106L81.146,53.872L80.426,53.872L80.299,53.099L80.252,53.099C80.073,53.383 79.824,53.6 79.505,53.751C79.189,53.902 78.828,53.977 78.421,53.977C77.72,53.977 77.194,53.811 76.843,53.477C76.496,53.144 76.322,52.611 76.322,51.878L76.322,48.106L77.206,48.106Z" fill="#000000"/>
<path d="M85.634,48.001C85.89,48.001 86.12,48.022 86.323,48.064L86.202,48.874C85.964,48.822 85.753,48.795 85.571,48.795C85.104,48.795 84.705,48.985 84.371,49.363C84.042,49.742 83.877,50.214 83.877,50.779L83.877,53.872L83.004,53.872L83.004,48.106L83.724,48.106L83.824,49.174L83.866,49.174C84.08,48.799 84.338,48.509 84.64,48.306C84.941,48.103 85.273,48.001 85.634,48.001Z" fill="#000000"/>
<path d="M88.275,53.872L87.402,53.872L87.402,48.106L88.275,48.106L88.275,53.872ZM87.328,46.544C87.328,46.344 87.377,46.198 87.475,46.107C87.574,46.012 87.696,45.965 87.844,45.965C87.984,45.965 88.105,46.012 88.207,46.107C88.308,46.202 88.359,46.347 88.359,46.544C88.359,46.74 88.308,46.887 88.207,46.985C88.105,47.08 87.984,47.128 87.844,47.128C87.696,47.128 87.574,47.08 87.475,46.985C87.377,46.887 87.328,46.74 87.328,46.544Z" fill="#000000"/>
<path d="M91.989,53.257C92.144,53.257 92.293,53.246 92.436,53.225C92.58,53.2 92.694,53.176 92.778,53.151L92.778,53.819C92.684,53.865 92.543,53.902 92.357,53.93C92.175,53.961 92.01,53.977 91.863,53.977C90.748,53.977 90.19,53.39 90.19,52.215L90.19,48.785L89.364,48.785L89.364,48.364L90.19,48.001L90.558,46.77L91.063,46.77L91.063,48.106L92.736,48.106L92.736,48.785L91.063,48.785L91.063,52.178C91.063,52.525 91.146,52.792 91.311,52.978C91.475,53.164 91.702,53.257 91.989,53.257Z" fill="#000000"/>
<path d="M93.02,48.106L93.957,48.106L95.219,51.394C95.497,52.145 95.668,52.687 95.735,53.02L95.777,53.02C95.823,52.841 95.917,52.536 96.061,52.104C96.208,51.669 96.685,50.337 97.492,48.106L98.429,48.106L95.951,54.672C95.705,55.321 95.418,55.78 95.088,56.05C94.762,56.324 94.36,56.46 93.883,56.46C93.617,56.46 93.354,56.431 93.094,56.371L93.094,55.671C93.287,55.713 93.503,55.734 93.741,55.734C94.341,55.734 94.769,55.398 95.025,54.724L95.346,53.904L93.02,48.106Z" fill="#000000"/>
<path d="M105.589,46.87C104.743,46.87 104.075,47.152 103.584,47.717C103.097,48.278 102.853,49.048 102.853,50.026C102.853,51.033 103.088,51.812 103.558,52.362C104.031,52.909 104.705,53.183 105.578,53.183C106.115,53.183 106.727,53.086 107.414,52.894L107.414,53.677C106.881,53.877 106.224,53.977 105.441,53.977C104.309,53.977 103.433,53.634 102.816,52.946C102.202,52.259 101.896,51.282 101.896,50.016C101.896,49.223 102.043,48.529 102.337,47.932C102.636,47.336 103.063,46.877 103.621,46.554C104.182,46.231 104.842,46.07 105.599,46.07C106.406,46.07 107.111,46.217 107.714,46.512L107.335,47.28C106.753,47.007 106.171,46.87 105.589,46.87Z" fill="#000000"/>
<path d="M112.907,53.872L112.907,50.142C112.907,49.672 112.8,49.321 112.586,49.09C112.372,48.858 112.037,48.743 111.581,48.743C110.974,48.743 110.53,48.907 110.25,49.237C109.973,49.567 109.834,50.107 109.834,50.858L109.834,53.872L108.961,53.872L108.961,45.686L109.834,45.686L109.834,48.164C109.834,48.462 109.82,48.709 109.792,48.906L109.845,48.906C110.017,48.629 110.26,48.411 110.576,48.253C110.895,48.092 111.258,48.011 111.665,48.011C112.37,48.011 112.898,48.18 113.249,48.516C113.603,48.85 113.78,49.381 113.78,50.11L113.78,53.872L112.907,53.872Z" fill="#000000"/>
<path d="M118.015,53.977C117.163,53.977 116.489,53.718 115.995,53.199C115.504,52.68 115.258,51.959 115.258,51.036C115.258,50.107 115.486,49.369 115.942,48.822C116.402,48.274 117.017,48.001 117.789,48.001C118.511,48.001 119.083,48.239 119.504,48.716C119.925,49.19 120.135,49.816 120.135,50.594L120.135,51.147L116.163,51.147C116.181,51.824 116.351,52.338 116.674,52.688C117,53.039 117.457,53.214 118.047,53.214C118.667,53.214 119.281,53.085 119.888,52.825L119.888,53.604C119.579,53.737 119.286,53.832 119.009,53.888C118.736,53.947 118.404,53.977 118.015,53.977ZM117.778,48.732C117.315,48.732 116.945,48.883 116.668,49.185C116.395,49.486 116.233,49.904 116.184,50.437L119.199,50.437C119.199,49.886 119.076,49.465 118.83,49.174C118.585,48.879 118.234,48.732 117.778,48.732Z" fill="#000000"/>
<path d="M123.934,53.977C123.099,53.977 122.452,53.721 121.992,53.209C121.536,52.694 121.308,51.966 121.308,51.026C121.308,50.061 121.54,49.316 122.003,48.79C122.469,48.264 123.132,48.001 123.991,48.001C124.269,48.001 124.546,48.031 124.823,48.09C125.1,48.15 125.317,48.22 125.475,48.301L125.207,49.043C125.014,48.965 124.803,48.902 124.575,48.853C124.347,48.801 124.146,48.774 123.97,48.774C122.799,48.774 122.213,49.521 122.213,51.015C122.213,51.724 122.355,52.267 122.639,52.646C122.927,53.025 123.351,53.214 123.913,53.214C124.393,53.214 124.886,53.111 125.391,52.904L125.391,53.677C125.005,53.877 124.519,53.977 123.934,53.977Z" fill="#000000"/>
<path d="M127.627,50.921C127.778,50.707 128.007,50.426 128.316,50.079L130.178,48.106L131.215,48.106L128.879,50.563L131.378,53.872L130.32,53.872L128.284,51.147L127.627,51.715L127.627,53.872L126.764,53.872L126.764,45.686L127.627,45.686L127.627,50.026C127.627,50.219 127.613,50.517 127.585,50.921L127.627,50.921Z" fill="#000000"/>
<path d="M137.402,50.984C137.402,51.924 137.165,52.659 136.691,53.188C136.218,53.714 135.564,53.977 134.729,53.977C134.213,53.977 133.756,53.856 133.356,53.614C132.956,53.372 132.647,53.025 132.43,52.573C132.213,52.12 132.104,51.591 132.104,50.984C132.104,50.044 132.339,49.313 132.809,48.79C133.279,48.264 133.931,48.001 134.766,48.001C135.573,48.001 136.213,48.269 136.686,48.806C137.163,49.342 137.402,50.068 137.402,50.984ZM133.009,50.984C133.009,51.72 133.156,52.281 133.451,52.667C133.745,53.053 134.178,53.246 134.75,53.246C135.322,53.246 135.755,53.055 136.05,52.673C136.348,52.287 136.497,51.724 136.497,50.984C136.497,50.251 136.348,49.695 136.05,49.316C135.755,48.934 135.318,48.743 134.74,48.743C134.168,48.743 133.736,48.93 133.445,49.306C133.154,49.681 133.009,50.24 133.009,50.984Z" fill="#000000"/>
<path d="M139.758,48.106L139.758,51.847C139.758,52.317 139.865,52.667 140.079,52.899C140.293,53.13 140.628,53.246 141.084,53.246C141.687,53.246 142.128,53.081 142.405,52.751C142.685,52.422 142.826,51.883 142.826,51.136L142.826,48.106L143.699,48.106L143.699,53.872L142.978,53.872L142.852,53.099L142.805,53.099C142.626,53.383 142.377,53.6 142.058,53.751C141.742,53.902 141.381,53.977 140.974,53.977C140.272,53.977 139.746,53.811 139.395,53.477C139.048,53.144 138.875,52.611 138.875,51.878L138.875,48.106L139.758,48.106Z" fill="#000000"/>
<path d="M147.418,53.257C147.573,53.257 147.722,53.246 147.866,53.225C148.009,53.2 148.123,53.176 148.208,53.151L148.208,53.819C148.113,53.865 147.973,53.902 147.787,53.93C147.604,53.961 147.439,53.977 147.292,53.977C146.177,53.977 145.619,53.39 145.619,52.215L145.619,48.785L144.793,48.785L144.793,48.364L145.619,48.001L145.987,46.77L146.492,46.77L146.492,48.106L148.165,48.106L148.165,48.785L146.492,48.785L146.492,52.178C146.492,52.525 146.575,52.792 146.74,52.978C146.905,53.164 147.131,53.257 147.418,53.257Z" fill="#000000"/>
</svg>
