<svg width="38" height="38" viewBox="0 0 38 38" fill="none" xmlns="http://www.w3.org/2000/svg" xmlns:xlink="http://www.w3.org/1999/xlink">
<path d="M28.79,25.952C33.704,19.642 33.26,10.512 27.459,4.711C21.177,-1.57 10.993,-1.57 4.711,4.711C-1.57,10.993 -1.57,21.177 4.711,27.459C10.512,33.26 19.642,33.704 25.952,28.79C25.979,28.821 26.008,28.851 26.037,28.881L34.568,37.411C35.353,38.196 36.626,38.196 37.411,37.411C38.196,36.626 38.196,35.353 37.411,34.568L28.881,26.037C28.851,26.008 28.821,25.98 28.79,25.952ZM24.485,7.515C29.172,12.201 29.172,19.799 24.485,24.485C19.799,29.172 12.201,29.172 7.515,24.485C2.828,19.799 2.828,12.201 7.515,7.515C12.201,2.828 19.799,2.828 24.485,7.515Z" clip-rule="evenodd" fill-rule="evenodd" fill="#FFFFFF"/>
</svg>
