<svg width="38" height="28" viewBox="0 0 38 28" fill="none" xmlns="http://www.w3.org/2000/svg" xmlns:xlink="http://www.w3.org/1999/xlink">
<path d="M35.893,1.227C35.646,0.977 35.351,0.778 35.026,0.643C34.701,0.507 34.352,0.438 34,0.438C33.648,0.438 33.3,0.507 32.975,0.643C32.65,0.778 32.355,0.977 32.107,1.227L12.24,21.12L3.893,12.747C3.636,12.498 3.332,12.302 2.999,12.171C2.666,12.04 2.311,11.976 1.953,11.982C1.595,11.988 1.242,12.065 0.914,12.207C0.586,12.35 0.289,12.556 0.04,12.813C-0.209,13.071 -0.404,13.374 -0.535,13.707C-0.667,14.04 -0.731,14.396 -0.725,14.754C-0.718,15.111 -0.642,15.465 -0.499,15.793C-0.357,16.121 -0.151,16.418 0.107,16.667L10.347,26.907C10.595,27.157 10.89,27.355 11.214,27.49C11.539,27.626 11.888,27.695 12.24,27.695C12.592,27.695 12.941,27.626 13.266,27.49C13.591,27.355 13.885,27.157 14.133,26.907L35.893,5.147C36.164,4.897 36.38,4.594 36.528,4.256C36.676,3.919 36.752,3.555 36.752,3.187C36.752,2.818 36.676,2.454 36.528,2.117C36.38,1.779 36.164,1.476 35.893,1.227L35.893,1.227Z" fill="#3E3E40"/>
</svg>
