<svg width="42" height="40" viewBox="0 0 42 40" fill="none" xmlns="http://www.w3.org/2000/svg" xmlns:xlink="http://www.w3.org/1999/xlink">
<path d="M39.485,20.633L21.485,0.633C20.727,-0.211 19.271,-0.211 18.513,0.633L0.513,20.633C0.255,20.92 0.085,21.276 0.025,21.658C-0.036,22.04 0.016,22.431 0.173,22.784C0.33,23.138 0.586,23.438 0.91,23.648C1.235,23.859 1.613,23.971 1.999,23.971L5.999,23.971L5.999,37.971C5.999,38.501 6.21,39.01 6.585,39.385C6.96,39.76 7.469,39.971 7.999,39.971L31.999,39.971C32.53,39.971 33.039,39.76 33.414,39.385C33.789,39.01 33.999,38.501 33.999,37.971L33.999,23.971L37.999,23.971C38.387,23.973 38.766,23.862 39.092,23.651C39.417,23.441 39.674,23.141 39.831,22.787C39.989,22.433 40.04,22.041 39.979,21.658C39.917,21.276 39.746,20.92 39.485,20.633ZM19.999,27.971C18.408,27.971 16.882,27.339 15.757,26.214C14.632,25.088 13.999,23.562 13.999,21.971C13.999,20.38 14.632,18.854 15.757,17.728C16.882,16.603 18.408,15.971 19.999,15.971C21.591,15.971 23.117,16.603 24.242,17.728C25.367,18.854 25.999,20.38 25.999,21.971C25.999,23.562 25.367,25.088 24.242,26.214C23.117,27.339 21.591,27.971 19.999,27.971Z" fill="#171717"/>
</svg>
