<svg width="40" height="40" viewBox="0 0 40 40" fill="none" xmlns="http://www.w3.org/2000/svg" xmlns:xlink="http://www.w3.org/1999/xlink">
<path d="M34,0L6,0C4.409,0 2.883,0.632 1.757,1.757C0.632,2.883 0,4.409 0,6L0,34C0,35.591 0.632,37.117 1.757,38.243C2.883,39.368 4.409,40 6,40L34,40C34.329,39.995 34.657,39.962 34.98,39.9L35.58,39.76L35.72,39.76L35.82,39.76L36.56,39.48L36.82,39.34C37.02,39.22 37.24,39.12 37.44,38.98C37.707,38.784 37.961,38.57 38.2,38.34L38.34,38.16C38.536,37.961 38.717,37.747 38.88,37.52L39.06,37.26C39.2,37.037 39.32,36.803 39.42,36.56C39.475,36.464 39.522,36.364 39.56,36.26C39.66,36.02 39.72,35.76 39.8,35.5L39.8,35.2C39.913,34.809 39.981,34.406 40,34L40,6C40,4.409 39.368,2.883 38.243,1.757C37.117,0.632 35.591,0 34,0ZM6,36C5.47,36 4.961,35.789 4.586,35.414C4.211,35.039 4,34.53 4,34L4,25.38L10.58,18.78C10.766,18.593 10.987,18.444 11.231,18.342C11.475,18.241 11.736,18.188 12,18.188C12.264,18.188 12.525,18.241 12.769,18.342C13.013,18.444 13.234,18.593 13.42,18.78L30.62,36L6,36ZM36,34C35.998,34.247 35.951,34.491 35.86,34.72C35.814,34.817 35.761,34.911 35.7,35C35.646,35.085 35.586,35.165 35.52,35.24L24.82,24.54L26.58,22.78C26.766,22.593 26.987,22.444 27.231,22.342C27.475,22.241 27.736,22.188 28,22.188C28.264,22.188 28.525,22.241 28.769,22.342C29.013,22.444 29.234,22.593 29.42,22.78L29.42,22.78L36,29.38L36,34ZM36,23.72L32.24,20C31.095,18.914 29.578,18.309 28,18.309C26.422,18.309 24.905,18.914 23.76,20L22,21.76L16.24,16C15.095,14.914 13.578,14.309 12,14.309C10.422,14.309 8.905,14.914 7.76,16L4,19.72L4,6C4,5.47 4.211,4.961 4.586,4.586C4.961,4.211 5.47,4 6,4L34,4C34.53,4 35.039,4.211 35.414,4.586C35.789,4.961 36,5.47 36,6L36,23.72Z" fill="#3E3E40"/>
</svg>
